# xmcd
#
# Track frame offsets:
#	150
#	11967
#	21851
#	33867
#	46557
#	59028
#	75193
#	87062
#	100523
#	112224
#	123172
#	133150
#	144476
#	157866
#	168814
#	184097
#	196485
#	213157
#	223047
#	236177
#	248275
#	259000
#	271561
#	291588
#	316001
#
# Disc length: 4455 seconds
#
# Revision: 1
# Processed by: cddbd v1.5.2PL0 Copyright (c) Steve Scherf et al.
# Submitted via: audiograbber 1.83.01
#
DISCID=4c116519
DTITLE=John Lee Hooker - At His Very Best [CD1)
DYEAR=2010
DGENRE=Blues
TTITLE0=Boogie Chillun
TTITLE1=Dimples
TTITLE2=I'm Mad Again
TTITLE3=Hobo Blues
TTITLE4=Crawlin' Kingsnake
TTITLE5=My First Wife Left Me
TTITLE6=Little Wheel
TTITLE7=Baby Lee
TTITLE8=Solid Sender
TTITLE9=No Shoes
TTITLE10=I'm Leaving Baby
TTITLE11=Boom Boom
TTITLE12=Whiskey And Wimmen
TTITLE13=Bottle Up And Go
TTITLE14=Tupelo
TTITLE15=Drug Store Woman
TTITLE16=Mama, You Got A Daughter
TTITLE17=Stop Talking
TTITLE18=Birmingham Blues
TTITLE19=Everybody Rockin'
TTITLE20=Let's Make It
TTITLE21=Mambo Chillun
TTITLE22=Nightmare
TTITLE23=Sugar Mama
TTITLE24=One Burbon, One Scotch, One Beer
EXTD=
EXTT0=
EXTT1=
EXTT2=
EXTT3=
EXTT4=
EXTT5=
EXTT6=
EXTT7=
EXTT8=
EXTT9=
EXTT10=
EXTT11=
EXTT12=
EXTT13=
EXTT14=Live at Newport 1960
EXTT15=
EXTT16=
EXTT17=
EXTT18=
EXTT19=
EXTT20=
EXTT21=
EXTT22=
EXTT23=Live at The Keystone, Palo Alto, California September 1977
EXTT24=Live in Chicago, Illinois October 1977
PLAYORDER=
